<svg width="45" height="45" viewBox="0 0 45 45" fill="none" xmlns="http://www.w3.org/2000/svg">
<rect width="45" height="45" rx="22.5" fill="#E8E8E8"/>
<path d="M31 21.5C31.0034 22.8199 30.6951 24.1219 30.1 25.3C29.3944 26.7118 28.3098 27.8992 26.9674 28.7293C25.6251 29.5594 24.0782 29.9994 22.5 30C21.1801 30.0035 19.8781 29.6951 18.7 29.1L13 31L14.9 25.3C14.3049 24.1219 13.9966 22.8199 14 21.5C14.0006 19.9218 14.4406 18.3749 15.2707 17.0326C16.1008 15.6903 17.2883 14.6056 18.7 13.9C19.8781 13.305 21.1801 12.9966 22.5 13H23C25.0843 13.115 27.053 13.9948 28.5291 15.4709C30.0052 16.947 30.885 18.9157 31 21V21.5Z" stroke="black" stroke-width="2" stroke-linecap="round" stroke-linejoin="round"/>
</svg>
